<?xml version="1.0" encoding="UTF-8"?>
<!DOCTYPE svg PUBLIC "-//W3C//DTD SVG 1.1//EN" "http://www.w3.org/Graphics/SVG/1.1/DTD/svg11.dtd">
<svg version="1.1" xmlns="http://www.w3.org/2000/svg" xmlns:xlink="http://www.w3.org/1999/xlink" x="0px" y="0px" width="128" height="128" viewBox="0, 0, 128, 128">
  <g id="Background">
    <rect x="0" y="0" width="128" height="128" fill="#000000" fill-opacity="0"/>
  </g>
  <g id="Background">
    <path d="M18.093,6 L109.907,6 C116.561,6 122,11.439 122,18.093 L122,109.907 C122,116.561 116.561,122 109.907,122 L18.093,122 C11.439,122 6,116.561 6,109.907 L6,18.093 C6,11.439 11.439,6 18.093,6" fill="#727272"/>
    <path d="M60.639,110.761 L55.277,91.75 L42.677,107.851 L45.079,87.511 L27.273,97.563 L37.288,79.692 L16.983,82.159 L33.068,69.481 L13.366,63.995 L33.086,58.438 L16.983,45.833 L37.325,48.24 L27.273,30.434 L45.147,40.439 L42.677,20.144 L55.355,36.229 L60.639,17.244 L60.639,39.339 L60.341,39.339 C53.545,39.339 47.372,42.107 42.909,46.565 L42.906,46.568 C38.448,51.031 35.68,57.204 35.68,64 C35.68,70.805 38.448,76.971 42.906,81.432 L42.909,81.437 C47.372,85.895 53.545,88.661 60.341,88.661 L60.639,88.661 z M60.639,43.476 L60.639,84.524 L60.341,84.524 C54.675,84.524 49.537,82.227 45.823,78.523 L45.819,78.519 C42.115,74.806 39.817,69.668 39.817,64 C39.817,58.332 42.115,53.194 45.819,49.482 L45.823,49.477 C49.537,45.774 54.675,43.476 60.341,43.476 z" fill="#84D0F4"/>
    <path d="M64.648,54.712 L69.969,45.509 C71.032,43.623 72.18,41.783 73.17,39.869 C70.681,35.398 68.037,31 65.521,26.538 C66.027,25.419 66.749,24.396 67.324,23.318 C67.627,22.875 67.813,22.3 68.219,21.948 C69.937,21.929 71.667,21.898 73.39,21.971 C75.142,24.848 76.76,27.811 78.5,30.694 C80.454,27.373 82.376,24.04 84.277,20.687 C86.05,20.614 87.84,20.664 89.607,20.656 C90.501,22.168 91.355,23.688 92.233,25.2 C90.297,28.575 88.355,31.941 86.419,35.316 C89.804,35.334 93.209,35.284 96.612,35.334 C97.456,36.864 98.352,38.366 99.216,39.882 C98.452,41.23 97.645,42.577 96.886,43.942 C96.749,44.148 96.654,44.481 96.348,44.449 C92.086,44.467 87.798,44.449 83.536,44.449 C82.729,44.481 81.903,44.362 81.112,44.518 C78.231,49.468 75.362,54.424 72.513,59.415 C78.262,59.415 84.026,59.415 89.771,59.415 C91.574,56.315 93.351,53.214 95.151,50.112 C95.955,48.778 96.667,47.367 97.538,46.052 C99.266,46.02 101.015,46.02 102.731,46.052 C103.156,46.573 103.422,47.195 103.782,47.77 C104.304,48.728 104.924,49.642 105.377,50.633 C103.741,53.583 101.992,56.465 100.339,59.415 C104.234,59.415 108.112,59.415 112.003,59.415 C112.867,60.945 113.756,62.466 114.634,63.982 C113.77,65.511 112.875,67.014 112.003,68.55 C108.125,68.55 104.234,68.55 100.339,68.55 C101.974,71.468 103.677,74.33 105.327,77.208 C105.449,77.432 105.23,77.633 105.162,77.838 C104.349,79.162 103.627,80.551 102.783,81.866 C101.892,82.03 100.964,81.88 100.055,81.93 C99.193,81.88 98.32,82.03 97.493,81.866 C94.862,77.445 92.351,72.961 89.762,68.55 C84.012,68.55 78.262,68.535 72.513,68.55 C75.299,73.472 78.162,78.323 80.957,83.227 C81.039,83.464 81.276,83.533 81.514,83.515 C86.543,83.533 91.574,83.483 96.612,83.533 C97.426,85.067 98.384,86.53 99.193,88.081 C98.452,89.535 97.558,90.914 96.767,92.348 C96.667,92.681 96.293,92.649 96.027,92.649 C92.808,92.649 89.607,92.649 86.401,92.649 C88.323,96.024 90.314,99.357 92.201,102.746 C91.83,103.624 91.255,104.413 90.802,105.272 C90.379,105.947 90.04,106.669 89.588,107.313 C87.848,107.358 86.117,107.358 84.382,107.328 C84.062,106.997 83.875,106.554 83.643,106.168 C81.953,103.235 80.267,100.321 78.582,97.389 C78.532,97.389 78.445,97.403 78.395,97.421 C76.81,100.147 75.229,102.897 73.646,105.642 C73.526,105.775 73.457,106.061 73.22,106.029 C71.522,106.029 69.818,106.029 68.12,106.029 C67.306,104.582 66.467,103.184 65.653,101.75 C65.521,101.578 65.521,101.362 65.653,101.207 C67.192,98.531 68.735,95.85 70.27,93.174 C71.234,91.474 72.297,89.816 73.17,88.064 C70.38,83.113 67.48,78.194 64.648,73.262 z" fill="#84D0F4"/>
  </g>
  <defs/>
</svg>
