<?xml version="1.0" encoding="UTF-8"?>
<!DOCTYPE svg PUBLIC "-//W3C//DTD SVG 1.1//EN" "http://www.w3.org/Graphics/SVG/1.1/DTD/svg11.dtd">
<svg version="1.1" xmlns="http://www.w3.org/2000/svg" xmlns:xlink="http://www.w3.org/1999/xlink" x="0px" y="0px" width="1200" height="800" viewBox="0, 0, 1200, 800">
  <g id="Background">
    <rect x="0" y="0" width="1200" height="800" fill="#000000" fill-opacity="0"/>
  </g>
  <g id="Layer 1">
    <g>
      <path d="M50.5,50.5 L100.5,50.5 L100.5,100.5 L50.5,100.5 z" fill="#EBEDED"/>
      <path d="M50.5,50.5 L100.5,50.5 L100.5,100.5 L50.5,100.5 z" fill-opacity="0" stroke="#294270" stroke-width="2"/>
    </g>
    <g>
      <path d="M100.5,50.5 L150.5,50.5 L150.5,100.5 L100.5,100.5 z" fill="#EBEDED"/>
      <path d="M100.5,50.5 L150.5,50.5 L150.5,100.5 L100.5,100.5 z" fill-opacity="0" stroke="#294270" stroke-width="2"/>
    </g>
    <g>
      <path d="M150.5,50.5 L200.5,50.5 L200.5,100.5 L150.5,100.5 z" fill="#EBEDED"/>
      <path d="M150.5,50.5 L200.5,50.5 L200.5,100.5 L150.5,100.5 z" fill-opacity="0" stroke="#294270" stroke-width="2"/>
    </g>
    <g>
      <path d="M200.5,50.5 L250.5,50.5 L250.5,100.5 L200.5,100.5 z" fill="#EBEDED"/>
      <path d="M200.5,50.5 L250.5,50.5 L250.5,100.5 L200.5,100.5 z" fill-opacity="0" stroke="#294270" stroke-width="2"/>
    </g>
    <g>
      <path d="M250.5,50.5 L300.5,50.5 L300.5,100.5 L250.5,100.5 z" fill="#EBEDED"/>
      <path d="M250.5,50.5 L300.5,50.5 L300.5,100.5 L250.5,100.5 z" fill-opacity="0" stroke="#294270" stroke-width="2"/>
    </g>
    <g>
      <path d="M50.5,100.5 L100.5,100.5 L100.5,150.5 L50.5,150.5 z" fill="#EBEDED"/>
      <path d="M50.5,100.5 L100.5,100.5 L100.5,150.5 L50.5,150.5 z" fill-opacity="0" stroke="#294270" stroke-width="2"/>
    </g>
    <g>
      <path d="M100.5,100.5 L150.5,100.5 L150.5,150.5 L100.5,150.5 z" fill="#EBEDED"/>
      <path d="M100.5,100.5 L150.5,100.5 L150.5,150.5 L100.5,150.5 z" fill-opacity="0" stroke="#294270" stroke-width="2"/>
    </g>
    <g>
      <path d="M150.5,100.5 L200.5,100.5 L200.5,150.5 L150.5,150.5 z" fill="#EBEDED"/>
      <path d="M150.5,100.5 L200.5,100.5 L200.5,150.5 L150.5,150.5 z" fill-opacity="0" stroke="#294270" stroke-width="2"/>
    </g>
    <g>
      <path d="M200.5,100.5 L250.5,100.5 L250.5,150.5 L200.5,150.5 z" fill="#EBEDED"/>
      <path d="M200.5,100.5 L250.5,100.5 L250.5,150.5 L200.5,150.5 z" fill-opacity="0" stroke="#294270" stroke-width="2"/>
    </g>
    <g>
      <path d="M250.5,100.5 L300.5,100.5 L300.5,150.5 L250.5,150.5 z" fill="#EBEDED"/>
      <path d="M250.5,100.5 L300.5,100.5 L300.5,150.5 L250.5,150.5 z" fill-opacity="0" stroke="#294270" stroke-width="2"/>
    </g>
    <g>
      <path d="M50.5,250.5 L100.5,250.5 L100.5,300.5 L50.5,300.5 z" fill="#EBEDED"/>
      <path d="M50.5,250.5 L100.5,250.5 L100.5,300.5 L50.5,300.5 z" fill-opacity="0" stroke="#294270" stroke-width="2"/>
    </g>
    <g>
      <path d="M100.5,250.5 L150.5,250.5 L150.5,300.5 L100.5,300.5 z" fill="#EBEDED"/>
      <path d="M100.5,250.5 L150.5,250.5 L150.5,300.5 L100.5,300.5 z" fill-opacity="0" stroke="#294270" stroke-width="2"/>
    </g>
    <g>
      <path d="M150.5,250.5 L200.5,250.5 L200.5,300.5 L150.5,300.5 z" fill="#EBEDED"/>
      <path d="M150.5,250.5 L200.5,250.5 L200.5,300.5 L150.5,300.5 z" fill-opacity="0" stroke="#294270" stroke-width="2"/>
    </g>
    <g>
      <path d="M200.5,250.5 L250.5,250.5 L250.5,300.5 L200.5,300.5 z" fill="#EBEDED"/>
      <path d="M200.5,250.5 L250.5,250.5 L250.5,300.5 L200.5,300.5 z" fill-opacity="0" stroke="#294270" stroke-width="2"/>
    </g>
    <g>
      <path d="M250.5,250.5 L300.5,250.5 L300.5,300.5 L250.5,300.5 z" fill="#EBEDED"/>
      <path d="M250.5,250.5 L300.5,250.5 L300.5,300.5 L250.5,300.5 z" fill-opacity="0" stroke="#294270" stroke-width="2"/>
    </g>
    <g>
      <path d="M50.5,150.5 L100.5,150.5 L100.5,200.5 L50.5,200.5 z" fill="#EBEDED"/>
      <path d="M50.5,150.5 L100.5,150.5 L100.5,200.5 L50.5,200.5 z" fill-opacity="0" stroke="#294270" stroke-width="2"/>
    </g>
    <g>
      <path d="M100.5,150.5 L150.5,150.5 L150.5,200.5 L100.5,200.5 z" fill="#EBEDED"/>
      <path d="M100.5,150.5 L150.5,150.5 L150.5,200.5 L100.5,200.5 z" fill-opacity="0" stroke="#294270" stroke-width="2"/>
    </g>
    <g>
      <path d="M150.5,150.5 L200.5,150.5 L200.5,200.5 L150.5,200.5 z" fill="#EBEDED"/>
      <path d="M150.5,150.5 L200.5,150.5 L200.5,200.5 L150.5,200.5 z" fill-opacity="0" stroke="#294270" stroke-width="2"/>
    </g>
    <g>
      <path d="M200.5,150.5 L250.5,150.5 L250.5,200.5 L200.5,200.5 z" fill="#EBEDED"/>
      <path d="M200.5,150.5 L250.5,150.5 L250.5,200.5 L200.5,200.5 z" fill-opacity="0" stroke="#294270" stroke-width="2"/>
    </g>
    <g>
      <path d="M250.5,150.5 L300.5,150.5 L300.5,200.5 L250.5,200.5 z" fill="#EBEDED"/>
      <path d="M250.5,150.5 L300.5,150.5 L300.5,200.5 L250.5,200.5 z" fill-opacity="0" stroke="#294270" stroke-width="2"/>
    </g>
    <g>
      <path d="M50.5,200.5 L100.5,200.5 L100.5,250.5 L50.5,250.5 z" fill="#EBEDED"/>
      <path d="M50.5,200.5 L100.5,200.5 L100.5,250.5 L50.5,250.5 z" fill-opacity="0" stroke="#294270" stroke-width="2"/>
    </g>
    <g>
      <path d="M100.5,200.5 L150.5,200.5 L150.5,250.5 L100.5,250.5 z" fill="#EBEDED"/>
      <path d="M100.5,200.5 L150.5,200.5 L150.5,250.5 L100.5,250.5 z" fill-opacity="0" stroke="#294270" stroke-width="2"/>
    </g>
    <g>
      <path d="M150.5,200.5 L200.5,200.5 L200.5,250.5 L150.5,250.5 z" fill="#EBEDED"/>
      <path d="M150.5,200.5 L200.5,200.5 L200.5,250.5 L150.5,250.5 z" fill-opacity="0" stroke="#294270" stroke-width="2"/>
    </g>
    <g>
      <path d="M200.5,200.5 L250.5,200.5 L250.5,250.5 L200.5,250.5 z" fill="#EBEDED"/>
      <path d="M200.5,200.5 L250.5,200.5 L250.5,250.5 L200.5,250.5 z" fill-opacity="0" stroke="#294270" stroke-width="2"/>
    </g>
    <g>
      <path d="M250.5,200.5 L300.5,200.5 L300.5,250.5 L250.5,250.5 z" fill="#EBEDED"/>
      <path d="M250.5,200.5 L300.5,200.5 L300.5,250.5 L250.5,250.5 z" fill-opacity="0" stroke="#294270" stroke-width="2"/>
    </g>
    <g>
      <path d="M175.5,190.5 C167.216,190.5 160.5,183.784 160.5,175.5 C160.5,167.216 167.216,160.5 175.5,160.5 C183.784,160.5 190.5,167.216 190.5,175.5 C190.5,183.784 183.784,190.5 175.5,190.5 z" fill="#C5C6C6"/>
      <path d="M175.5,190.5 C167.216,190.5 160.5,183.784 160.5,175.5 C160.5,167.216 167.216,160.5 175.5,160.5 C183.784,160.5 190.5,167.216 190.5,175.5 C190.5,183.784 183.784,190.5 175.5,190.5 z" fill-opacity="0" stroke="#737370" stroke-width="4"/>
    </g>
    <g>
      <path d="M475.5,50.5 L525.5,50.5 L525.5,100.5 L475.5,100.5 z" fill="#EBEDED"/>
      <path d="M475.5,50.5 L525.5,50.5 L525.5,100.5 L475.5,100.5 z" fill-opacity="0" stroke="#294270" stroke-width="2"/>
    </g>
    <g>
      <path d="M525.5,50.5 L575.5,50.5 L575.5,100.5 L525.5,100.5 z" fill="#EBEDED"/>
      <path d="M525.5,50.5 L575.5,50.5 L575.5,100.5 L525.5,100.5 z" fill-opacity="0" stroke="#294270" stroke-width="2"/>
    </g>
    <g>
      <path d="M575.5,50.5 L625.5,50.5 L625.5,100.5 L575.5,100.5 z" fill="#EBEDED"/>
      <path d="M575.5,50.5 L625.5,50.5 L625.5,100.5 L575.5,100.5 z" fill-opacity="0" stroke="#294270" stroke-width="2"/>
    </g>
    <g>
      <path d="M625.5,50.5 L675.5,50.5 L675.5,100.5 L625.5,100.5 z" fill="#EBEDED"/>
      <path d="M625.5,50.5 L675.5,50.5 L675.5,100.5 L625.5,100.5 z" fill-opacity="0" stroke="#294270" stroke-width="2"/>
    </g>
    <g>
      <path d="M675.5,50.5 L725.5,50.5 L725.5,100.5 L675.5,100.5 z" fill="#EBEDED"/>
      <path d="M675.5,50.5 L725.5,50.5 L725.5,100.5 L675.5,100.5 z" fill-opacity="0" stroke="#294270" stroke-width="2"/>
    </g>
    <g>
      <path d="M475.5,100.5 L525.5,100.5 L525.5,150.5 L475.5,150.5 z" fill="#EBEDED"/>
      <path d="M475.5,100.5 L525.5,100.5 L525.5,150.5 L475.5,150.5 z" fill-opacity="0" stroke="#294270" stroke-width="2"/>
    </g>
    <g>
      <path d="M525.5,100.5 L575.5,100.5 L575.5,150.5 L525.5,150.5 z" fill="#EBEDED"/>
      <path d="M525.5,100.5 L575.5,100.5 L575.5,150.5 L525.5,150.5 z" fill-opacity="0" stroke="#294270" stroke-width="2"/>
    </g>
    <g>
      <path d="M575.5,100.5 L625.5,100.5 L625.5,150.5 L575.5,150.5 z" fill="#EBEDED"/>
      <path d="M575.5,100.5 L625.5,100.5 L625.5,150.5 L575.5,150.5 z" fill-opacity="0" stroke="#294270" stroke-width="2"/>
    </g>
    <g>
      <path d="M625.5,100.5 L675.5,100.5 L675.5,150.5 L625.5,150.5 z" fill="#EBEDED"/>
      <path d="M625.5,100.5 L675.5,100.5 L675.5,150.5 L625.5,150.5 z" fill-opacity="0" stroke="#294270" stroke-width="2"/>
    </g>
    <g>
      <path d="M675.5,100.5 L725.5,100.5 L725.5,150.5 L675.5,150.5 z" fill="#EBEDED"/>
      <path d="M675.5,100.5 L725.5,100.5 L725.5,150.5 L675.5,150.5 z" fill-opacity="0" stroke="#294270" stroke-width="2"/>
    </g>
    <g>
      <path d="M475.5,250.5 L525.5,250.5 L525.5,300.5 L475.5,300.5 z" fill="#EBEDED"/>
      <path d="M475.5,250.5 L525.5,250.5 L525.5,300.5 L475.5,300.5 z" fill-opacity="0" stroke="#294270" stroke-width="2"/>
    </g>
    <g>
      <path d="M525.5,250.5 L575.5,250.5 L575.5,300.5 L525.5,300.5 z" fill="#EBEDED"/>
      <path d="M525.5,250.5 L575.5,250.5 L575.5,300.5 L525.5,300.5 z" fill-opacity="0" stroke="#294270" stroke-width="2"/>
    </g>
    <g>
      <path d="M575.5,250.5 L625.5,250.5 L625.5,300.5 L575.5,300.5 z" fill="#EBEDED"/>
      <path d="M575.5,250.5 L625.5,250.5 L625.5,300.5 L575.5,300.5 z" fill-opacity="0" stroke="#294270" stroke-width="2"/>
    </g>
    <g>
      <path d="M625.5,250.5 L675.5,250.5 L675.5,300.5 L625.5,300.5 z" fill="#EBEDED"/>
      <path d="M625.5,250.5 L675.5,250.5 L675.5,300.5 L625.5,300.5 z" fill-opacity="0" stroke="#294270" stroke-width="2"/>
    </g>
    <g>
      <path d="M675.5,250.5 L725.5,250.5 L725.5,300.5 L675.5,300.5 z" fill="#EBEDED"/>
      <path d="M675.5,250.5 L725.5,250.5 L725.5,300.5 L675.5,300.5 z" fill-opacity="0" stroke="#294270" stroke-width="2"/>
    </g>
    <g>
      <path d="M475.5,150.5 L525.5,150.5 L525.5,200.5 L475.5,200.5 z" fill="#EBEDED"/>
      <path d="M475.5,150.5 L525.5,150.5 L525.5,200.5 L475.5,200.5 z" fill-opacity="0" stroke="#294270" stroke-width="2"/>
    </g>
    <g>
      <path d="M525.5,150.5 L575.5,150.5 L575.5,200.5 L525.5,200.5 z" fill="#EBEDED"/>
      <path d="M525.5,150.5 L575.5,150.5 L575.5,200.5 L525.5,200.5 z" fill-opacity="0" stroke="#294270" stroke-width="2"/>
    </g>
    <g>
      <path d="M575.5,150.5 L625.5,150.5 L625.5,200.5 L575.5,200.5 z" fill="#EBEDED"/>
      <path d="M575.5,150.5 L625.5,150.5 L625.5,200.5 L575.5,200.5 z" fill-opacity="0" stroke="#294270" stroke-width="2"/>
    </g>
    <g>
      <path d="M625.5,150.5 L675.5,150.5 L675.5,200.5 L625.5,200.5 z" fill="#EBEDED"/>
      <path d="M625.5,150.5 L675.5,150.5 L675.5,200.5 L625.5,200.5 z" fill-opacity="0" stroke="#294270" stroke-width="2"/>
    </g>
    <g>
      <path d="M675.5,150.5 L725.5,150.5 L725.5,200.5 L675.5,200.5 z" fill="#EBEDED"/>
      <path d="M675.5,150.5 L725.5,150.5 L725.5,200.5 L675.5,200.5 z" fill-opacity="0" stroke="#294270" stroke-width="2"/>
    </g>
    <g>
      <path d="M475.5,200.5 L525.5,200.5 L525.5,250.5 L475.5,250.5 z" fill="#EBEDED"/>
      <path d="M475.5,200.5 L525.5,200.5 L525.5,250.5 L475.5,250.5 z" fill-opacity="0" stroke="#294270" stroke-width="2"/>
    </g>
    <g>
      <path d="M525.5,200.5 L575.5,200.5 L575.5,250.5 L525.5,250.5 z" fill="#EBEDED"/>
      <path d="M525.5,200.5 L575.5,200.5 L575.5,250.5 L525.5,250.5 z" fill-opacity="0" stroke="#294270" stroke-width="2"/>
    </g>
    <g>
      <path d="M575.5,200.5 L625.5,200.5 L625.5,250.5 L575.5,250.5 z" fill="#EBEDED"/>
      <path d="M575.5,200.5 L625.5,200.5 L625.5,250.5 L575.5,250.5 z" fill-opacity="0" stroke="#294270" stroke-width="2"/>
    </g>
    <g>
      <path d="M625.5,200.5 L675.5,200.5 L675.5,250.5 L625.5,250.5 z" fill="#EBEDED"/>
      <path d="M625.5,200.5 L675.5,200.5 L675.5,250.5 L625.5,250.5 z" fill-opacity="0" stroke="#294270" stroke-width="2"/>
    </g>
    <g>
      <path d="M675.5,200.5 L725.5,200.5 L725.5,250.5 L675.5,250.5 z" fill="#EBEDED"/>
      <path d="M675.5,200.5 L725.5,200.5 L725.5,250.5 L675.5,250.5 z" fill-opacity="0" stroke="#294270" stroke-width="2"/>
    </g>
    <g>
      <path d="M600.5,190.5 C592.216,190.5 585.5,183.784 585.5,175.5 C585.5,167.216 592.216,160.5 600.5,160.5 C608.784,160.5 615.5,167.216 615.5,175.5 C615.5,183.784 608.784,190.5 600.5,190.5 z" fill="#C5C6C6"/>
      <path d="M600.5,190.5 C592.216,190.5 585.5,183.784 585.5,175.5 C585.5,167.216 592.216,160.5 600.5,160.5 C608.784,160.5 615.5,167.216 615.5,175.5 C615.5,183.784 608.784,190.5 600.5,190.5 z" fill-opacity="0" stroke="#737370" stroke-width="4"/>
    </g>
    <text transform="matrix(1, 0, 0, 1, 174.424, 325)">
      <tspan x="-124.424" y="9" font-family="Verdana-Bold" font-size="24" fill="#294270">checkio([[2,2,0]])</tspan>
    </text>
    <g>
      <path d="M600.5,90.5 C592.216,90.5 585.5,83.784 585.5,75.5 C585.5,67.216 592.216,60.5 600.5,60.5 C608.784,60.5 615.5,67.216 615.5,75.5 C615.5,83.784 608.784,90.5 600.5,90.5 z" fill="#8FC7ED"/>
      <path d="M600.5,90.5 C592.216,90.5 585.5,83.784 585.5,75.5 C585.5,67.216 592.216,60.5 600.5,60.5 C608.784,60.5 615.5,67.216 615.5,75.5 C615.5,83.784 608.784,90.5 600.5,90.5 z" fill-opacity="0" stroke="#006CA9" stroke-width="4"/>
    </g>
    <text transform="matrix(1, 0, 0, 1, 599.424, 339.5)">
      <tspan x="-124.424" y="-5.5" font-family="Verdana-Bold" font-size="24" fill="#294270">checkio([[2,2,0],</tspan>
      <tspan x="-124.424" y="23.5" font-family="Verdana-Bold" font-size="24" fill="#294270">			 [0,2,-1]])</tspan>
    </text>
    <g>
      <path d="M900.5,50.5 L950.5,50.5 L950.5,100.5 L900.5,100.5 z" fill="#EBEDED"/>
      <path d="M900.5,50.5 L950.5,50.5 L950.5,100.5 L900.5,100.5 z" fill-opacity="0" stroke="#294270" stroke-width="2"/>
    </g>
    <g>
      <path d="M950.5,50.5 L1000.5,50.5 L1000.5,100.5 L950.5,100.5 z" fill="#EBEDED"/>
      <path d="M950.5,50.5 L1000.5,50.5 L1000.5,100.5 L950.5,100.5 z" fill-opacity="0" stroke="#294270" stroke-width="2"/>
    </g>
    <g>
      <path d="M1000.5,50.5 L1050.5,50.5 L1050.5,100.5 L1000.5,100.5 z" fill="#EBEDED"/>
      <path d="M1000.5,50.5 L1050.5,50.5 L1050.5,100.5 L1000.5,100.5 z" fill-opacity="0" stroke="#294270" stroke-width="2"/>
    </g>
    <g>
      <path d="M1050.5,50.5 L1100.5,50.5 L1100.5,100.5 L1050.5,100.5 z" fill="#EBEDED"/>
      <path d="M1050.5,50.5 L1100.5,50.5 L1100.5,100.5 L1050.5,100.5 z" fill-opacity="0" stroke="#294270" stroke-width="2"/>
    </g>
    <g>
      <path d="M1100.5,50.5 L1150.5,50.5 L1150.5,100.5 L1100.5,100.5 z" fill="#EBEDED"/>
      <path d="M1100.5,50.5 L1150.5,50.5 L1150.5,100.5 L1100.5,100.5 z" fill-opacity="0" stroke="#294270" stroke-width="2"/>
    </g>
    <g>
      <path d="M900.5,100.5 L950.5,100.5 L950.5,150.5 L900.5,150.5 z" fill="#EBEDED"/>
      <path d="M900.5,100.5 L950.5,100.5 L950.5,150.5 L900.5,150.5 z" fill-opacity="0" stroke="#294270" stroke-width="2"/>
    </g>
    <g>
      <path d="M950.5,100.5 L1000.5,100.5 L1000.5,150.5 L950.5,150.5 z" fill="#EBEDED"/>
      <path d="M950.5,100.5 L1000.5,100.5 L1000.5,150.5 L950.5,150.5 z" fill-opacity="0" stroke="#294270" stroke-width="2"/>
    </g>
    <g>
      <path d="M1000.5,100.5 L1050.5,100.5 L1050.5,150.5 L1000.5,150.5 z" fill="#EBEDED"/>
      <path d="M1000.5,100.5 L1050.5,100.5 L1050.5,150.5 L1000.5,150.5 z" fill-opacity="0" stroke="#294270" stroke-width="2"/>
    </g>
    <g>
      <path d="M1050.5,100.5 L1100.5,100.5 L1100.5,150.5 L1050.5,150.5 z" fill="#EBEDED"/>
      <path d="M1050.5,100.5 L1100.5,100.5 L1100.5,150.5 L1050.5,150.5 z" fill-opacity="0" stroke="#294270" stroke-width="2"/>
    </g>
    <g>
      <path d="M1100.5,100.5 L1150.5,100.5 L1150.5,150.5 L1100.5,150.5 z" fill="#EBEDED"/>
      <path d="M1100.5,100.5 L1150.5,100.5 L1150.5,150.5 L1100.5,150.5 z" fill-opacity="0" stroke="#294270" stroke-width="2"/>
    </g>
    <g>
      <path d="M900.5,250.5 L950.5,250.5 L950.5,300.5 L900.5,300.5 z" fill="#EBEDED"/>
      <path d="M900.5,250.5 L950.5,250.5 L950.5,300.5 L900.5,300.5 z" fill-opacity="0" stroke="#294270" stroke-width="2"/>
    </g>
    <g>
      <path d="M950.5,250.5 L1000.5,250.5 L1000.5,300.5 L950.5,300.5 z" fill="#EBEDED"/>
      <path d="M950.5,250.5 L1000.5,250.5 L1000.5,300.5 L950.5,300.5 z" fill-opacity="0" stroke="#294270" stroke-width="2"/>
    </g>
    <g>
      <path d="M1000.5,250.5 L1050.5,250.5 L1050.5,300.5 L1000.5,300.5 z" fill="#EBEDED"/>
      <path d="M1000.5,250.5 L1050.5,250.5 L1050.5,300.5 L1000.5,300.5 z" fill-opacity="0" stroke="#294270" stroke-width="2"/>
    </g>
    <g>
      <path d="M1050.5,250.5 L1100.5,250.5 L1100.5,300.5 L1050.5,300.5 z" fill="#EBEDED"/>
      <path d="M1050.5,250.5 L1100.5,250.5 L1100.5,300.5 L1050.5,300.5 z" fill-opacity="0" stroke="#294270" stroke-width="2"/>
    </g>
    <g>
      <path d="M1100.5,250.5 L1150.5,250.5 L1150.5,300.5 L1100.5,300.5 z" fill="#EBEDED"/>
      <path d="M1100.5,250.5 L1150.5,250.5 L1150.5,300.5 L1100.5,300.5 z" fill-opacity="0" stroke="#294270" stroke-width="2"/>
    </g>
    <g>
      <path d="M900.5,150.5 L950.5,150.5 L950.5,200.5 L900.5,200.5 z" fill="#EBEDED"/>
      <path d="M900.5,150.5 L950.5,150.5 L950.5,200.5 L900.5,200.5 z" fill-opacity="0" stroke="#294270" stroke-width="2"/>
    </g>
    <g>
      <path d="M950.5,150.5 L1000.5,150.5 L1000.5,200.5 L950.5,200.5 z" fill="#EBEDED"/>
      <path d="M950.5,150.5 L1000.5,150.5 L1000.5,200.5 L950.5,200.5 z" fill-opacity="0" stroke="#294270" stroke-width="2"/>
    </g>
    <g>
      <path d="M1000.5,150.5 L1050.5,150.5 L1050.5,200.5 L1000.5,200.5 z" fill="#EBEDED"/>
      <path d="M1000.5,150.5 L1050.5,150.5 L1050.5,200.5 L1000.5,200.5 z" fill-opacity="0" stroke="#294270" stroke-width="2"/>
    </g>
    <g>
      <path d="M1050.5,150.5 L1100.5,150.5 L1100.5,200.5 L1050.5,200.5 z" fill="#EBEDED"/>
      <path d="M1050.5,150.5 L1100.5,150.5 L1100.5,200.5 L1050.5,200.5 z" fill-opacity="0" stroke="#294270" stroke-width="2"/>
    </g>
    <g>
      <path d="M1100.5,150.5 L1150.5,150.5 L1150.5,200.5 L1100.5,200.5 z" fill="#EBEDED"/>
      <path d="M1100.5,150.5 L1150.5,150.5 L1150.5,200.5 L1100.5,200.5 z" fill-opacity="0" stroke="#294270" stroke-width="2"/>
    </g>
    <g>
      <path d="M900.5,200.5 L950.5,200.5 L950.5,250.5 L900.5,250.5 z" fill="#EBEDED"/>
      <path d="M900.5,200.5 L950.5,200.5 L950.5,250.5 L900.5,250.5 z" fill-opacity="0" stroke="#294270" stroke-width="2"/>
    </g>
    <g>
      <path d="M950.5,200.5 L1000.5,200.5 L1000.5,250.5 L950.5,250.5 z" fill="#EBEDED"/>
      <path d="M950.5,200.5 L1000.5,200.5 L1000.5,250.5 L950.5,250.5 z" fill-opacity="0" stroke="#294270" stroke-width="2"/>
    </g>
    <g>
      <path d="M1000.5,200.5 L1050.5,200.5 L1050.5,250.5 L1000.5,250.5 z" fill="#EBEDED"/>
      <path d="M1000.5,200.5 L1050.5,200.5 L1050.5,250.5 L1000.5,250.5 z" fill-opacity="0" stroke="#294270" stroke-width="2"/>
    </g>
    <g>
      <path d="M1050.5,200.5 L1100.5,200.5 L1100.5,250.5 L1050.5,250.5 z" fill="#EBEDED"/>
      <path d="M1050.5,200.5 L1100.5,200.5 L1100.5,250.5 L1050.5,250.5 z" fill-opacity="0" stroke="#294270" stroke-width="2"/>
    </g>
    <g>
      <path d="M1100.5,200.5 L1150.5,200.5 L1150.5,250.5 L1100.5,250.5 z" fill="#EBEDED"/>
      <path d="M1100.5,200.5 L1150.5,200.5 L1150.5,250.5 L1100.5,250.5 z" fill-opacity="0" stroke="#294270" stroke-width="2"/>
    </g>
    <g>
      <path d="M1025.5,190.5 C1017.216,190.5 1010.5,183.784 1010.5,175.5 C1010.5,167.216 1017.216,160.5 1025.5,160.5 C1033.784,160.5 1040.5,167.216 1040.5,175.5 C1040.5,183.784 1033.784,190.5 1025.5,190.5 z" fill="#C5C6C6"/>
      <path d="M1025.5,190.5 C1017.216,190.5 1010.5,183.784 1010.5,175.5 C1010.5,167.216 1017.216,160.5 1025.5,160.5 C1033.784,160.5 1040.5,167.216 1040.5,175.5 C1040.5,183.784 1033.784,190.5 1025.5,190.5 z" fill-opacity="0" stroke="#737370" stroke-width="4"/>
    </g>
    <g>
      <path d="M1025.5,90.5 C1017.216,90.5 1010.5,83.784 1010.5,75.5 C1010.5,67.216 1017.216,60.5 1025.5,60.5 C1033.784,60.5 1040.5,67.216 1040.5,75.5 C1040.5,83.784 1033.784,90.5 1025.5,90.5 z" fill="#8FC7ED"/>
      <path d="M1025.5,90.5 C1017.216,90.5 1010.5,83.784 1010.5,75.5 C1010.5,67.216 1017.216,60.5 1025.5,60.5 C1033.784,60.5 1040.5,67.216 1040.5,75.5 C1040.5,83.784 1033.784,90.5 1025.5,90.5 z" fill-opacity="0" stroke="#006CA9" stroke-width="4"/>
    </g>
    <text transform="matrix(1, 0, 0, 1, 1024.424, 354)">
      <tspan x="-124.424" y="-20" font-family="Verdana-Bold" font-size="24" fill="#294270">checkio([[2,2,0],</tspan>
      <tspan x="-124.424" y="9" font-family="Verdana-Bold" font-size="24" fill="#294270">				 [0,2,-1],</tspan>
      <tspan x="-124.424" y="38" font-family="Verdana-Bold" font-size="24" fill="#294270">				 [3,2,1]])</tspan>
    </text>
    <g>
      <path d="M1025.5,240.5 C1017.216,240.5 1010.5,233.784 1010.5,225.5 C1010.5,217.216 1017.216,210.5 1025.5,210.5 C1033.784,210.5 1040.5,217.216 1040.5,225.5 C1040.5,233.784 1033.784,240.5 1025.5,240.5 z" fill="#FABA00"/>
      <path d="M1025.5,240.5 C1017.216,240.5 1010.5,233.784 1010.5,225.5 C1010.5,217.216 1017.216,210.5 1025.5,210.5 C1033.784,210.5 1040.5,217.216 1040.5,225.5 C1040.5,233.784 1033.784,240.5 1025.5,240.5 z" fill-opacity="0" stroke="#F0801A" stroke-width="4"/>
    </g>
    <g>
      <path d="M600.74,176.47 L600.74,89.954" fill-opacity="0" stroke="#294270" stroke-width="3"/>
      <path d="M604.94,89.954 L600.74,78.754 L596.54,89.954 M600.74,89.954 L600.74,78.754" fill-opacity="0" stroke="#294270" stroke-width="3" stroke-opacity="1"/>
    </g>
    <g>
      <path d="M1025.5,76.526 L1025.5,214.121" fill-opacity="0" stroke="#F0801A" stroke-width="3"/>
      <path d="M1021.3,214.121 L1025.5,225.321 L1029.7,214.121 M1025.5,214.121 L1025.5,225.321" fill-opacity="0" stroke="#F0801A" stroke-width="3" stroke-opacity="1"/>
    </g>
    <g>
      <path d="M1025.5,176.642 L1025.5,90.126" fill-opacity="0" stroke="#294270" stroke-width="3"/>
      <path d="M1029.7,90.126 L1025.5,78.926 L1021.3,90.126 M1025.5,90.126 L1025.5,78.926" fill-opacity="0" stroke="#294270" stroke-width="3" stroke-opacity="1"/>
    </g>
    <g>
      <path d="M225.044,398.5 L275.044,398.5 L275.044,448.5 L225.044,448.5 z" fill="#EBEDED"/>
      <path d="M225.044,398.5 L275.044,398.5 L275.044,448.5 L225.044,448.5 z" fill-opacity="0" stroke="#294270" stroke-width="2"/>
    </g>
    <g>
      <path d="M275.044,398.5 L325.044,398.5 L325.044,448.5 L275.044,448.5 z" fill="#EBEDED"/>
      <path d="M275.044,398.5 L325.044,398.5 L325.044,448.5 L275.044,448.5 z" fill-opacity="0" stroke="#294270" stroke-width="2"/>
    </g>
    <g>
      <path d="M325.044,398.5 L375.044,398.5 L375.044,448.5 L325.044,448.5 z" fill="#EBEDED"/>
      <path d="M325.044,398.5 L375.044,398.5 L375.044,448.5 L325.044,448.5 z" fill-opacity="0" stroke="#294270" stroke-width="2"/>
    </g>
    <g>
      <path d="M375.044,398.5 L425.044,398.5 L425.044,448.5 L375.044,448.5 z" fill="#EBEDED"/>
      <path d="M375.044,398.5 L425.044,398.5 L425.044,448.5 L375.044,448.5 z" fill-opacity="0" stroke="#294270" stroke-width="2"/>
    </g>
    <g>
      <path d="M425.044,398.5 L475.044,398.5 L475.044,448.5 L425.044,448.5 z" fill="#EBEDED"/>
      <path d="M425.044,398.5 L475.044,398.5 L475.044,448.5 L425.044,448.5 z" fill-opacity="0" stroke="#294270" stroke-width="2"/>
    </g>
    <g>
      <path d="M225.044,448.5 L275.044,448.5 L275.044,498.5 L225.044,498.5 z" fill="#EBEDED"/>
      <path d="M225.044,448.5 L275.044,448.5 L275.044,498.5 L225.044,498.5 z" fill-opacity="0" stroke="#294270" stroke-width="2"/>
    </g>
    <g>
      <path d="M275.044,448.5 L325.044,448.5 L325.044,498.5 L275.044,498.5 z" fill="#EBEDED"/>
      <path d="M275.044,448.5 L325.044,448.5 L325.044,498.5 L275.044,498.5 z" fill-opacity="0" stroke="#294270" stroke-width="2"/>
    </g>
    <g>
      <path d="M325.044,448.5 L375.044,448.5 L375.044,498.5 L325.044,498.5 z" fill="#EBEDED"/>
      <path d="M325.044,448.5 L375.044,448.5 L375.044,498.5 L325.044,498.5 z" fill-opacity="0" stroke="#294270" stroke-width="2"/>
    </g>
    <g>
      <path d="M375.044,448.5 L425.044,448.5 L425.044,498.5 L375.044,498.5 z" fill="#EBEDED"/>
      <path d="M375.044,448.5 L425.044,448.5 L425.044,498.5 L375.044,498.5 z" fill-opacity="0" stroke="#294270" stroke-width="2"/>
    </g>
    <g>
      <path d="M425.044,448.5 L475.044,448.5 L475.044,498.5 L425.044,498.5 z" fill="#EBEDED"/>
      <path d="M425.044,448.5 L475.044,448.5 L475.044,498.5 L425.044,498.5 z" fill-opacity="0" stroke="#294270" stroke-width="2"/>
    </g>
    <g>
      <path d="M225.044,598.5 L275.044,598.5 L275.044,648.5 L225.044,648.5 z" fill="#EBEDED"/>
      <path d="M225.044,598.5 L275.044,598.5 L275.044,648.5 L225.044,648.5 z" fill-opacity="0" stroke="#294270" stroke-width="2"/>
    </g>
    <g>
      <path d="M275.044,598.5 L325.044,598.5 L325.044,648.5 L275.044,648.5 z" fill="#EBEDED"/>
      <path d="M275.044,598.5 L325.044,598.5 L325.044,648.5 L275.044,648.5 z" fill-opacity="0" stroke="#294270" stroke-width="2"/>
    </g>
    <g>
      <path d="M325.044,598.5 L375.044,598.5 L375.044,648.5 L325.044,648.5 z" fill="#EBEDED"/>
      <path d="M325.044,598.5 L375.044,598.5 L375.044,648.5 L325.044,648.5 z" fill-opacity="0" stroke="#294270" stroke-width="2"/>
    </g>
    <g>
      <path d="M375.044,598.5 L425.044,598.5 L425.044,648.5 L375.044,648.5 z" fill="#EBEDED"/>
      <path d="M375.044,598.5 L425.044,598.5 L425.044,648.5 L375.044,648.5 z" fill-opacity="0" stroke="#294270" stroke-width="2"/>
    </g>
    <g>
      <path d="M425.044,598.5 L475.044,598.5 L475.044,648.5 L425.044,648.5 z" fill="#EBEDED"/>
      <path d="M425.044,598.5 L475.044,598.5 L475.044,648.5 L425.044,648.5 z" fill-opacity="0" stroke="#294270" stroke-width="2"/>
    </g>
    <g>
      <path d="M225.044,498.5 L275.044,498.5 L275.044,548.5 L225.044,548.5 z" fill="#EBEDED"/>
      <path d="M225.044,498.5 L275.044,498.5 L275.044,548.5 L225.044,548.5 z" fill-opacity="0" stroke="#294270" stroke-width="2"/>
    </g>
    <g>
      <path d="M275.044,498.5 L325.044,498.5 L325.044,548.5 L275.044,548.5 z" fill="#EBEDED"/>
      <path d="M275.044,498.5 L325.044,498.5 L325.044,548.5 L275.044,548.5 z" fill-opacity="0" stroke="#294270" stroke-width="2"/>
    </g>
    <g>
      <path d="M325.044,498.5 L375.044,498.5 L375.044,548.5 L325.044,548.5 z" fill="#EBEDED"/>
      <path d="M325.044,498.5 L375.044,498.5 L375.044,548.5 L325.044,548.5 z" fill-opacity="0" stroke="#294270" stroke-width="2"/>
    </g>
    <g>
      <path d="M375.044,498.5 L425.044,498.5 L425.044,548.5 L375.044,548.5 z" fill="#EBEDED"/>
      <path d="M375.044,498.5 L425.044,498.5 L425.044,548.5 L375.044,548.5 z" fill-opacity="0" stroke="#294270" stroke-width="2"/>
    </g>
    <g>
      <path d="M425.044,498.5 L475.044,498.5 L475.044,548.5 L425.044,548.5 z" fill="#EBEDED"/>
      <path d="M425.044,498.5 L475.044,498.5 L475.044,548.5 L425.044,548.5 z" fill-opacity="0" stroke="#294270" stroke-width="2"/>
    </g>
    <g>
      <path d="M225.044,548.5 L275.044,548.5 L275.044,598.5 L225.044,598.5 z" fill="#EBEDED"/>
      <path d="M225.044,548.5 L275.044,548.5 L275.044,598.5 L225.044,598.5 z" fill-opacity="0" stroke="#294270" stroke-width="2"/>
    </g>
    <g>
      <path d="M275.044,548.5 L325.044,548.5 L325.044,598.5 L275.044,598.5 z" fill="#EBEDED"/>
      <path d="M275.044,548.5 L325.044,548.5 L325.044,598.5 L275.044,598.5 z" fill-opacity="0" stroke="#294270" stroke-width="2"/>
    </g>
    <g>
      <path d="M325.044,548.5 L375.044,548.5 L375.044,598.5 L325.044,598.5 z" fill="#EBEDED"/>
      <path d="M325.044,548.5 L375.044,548.5 L375.044,598.5 L325.044,598.5 z" fill-opacity="0" stroke="#294270" stroke-width="2"/>
    </g>
    <g>
      <path d="M375.044,548.5 L425.044,548.5 L425.044,598.5 L375.044,598.5 z" fill="#EBEDED"/>
      <path d="M375.044,548.5 L425.044,548.5 L425.044,598.5 L375.044,598.5 z" fill-opacity="0" stroke="#294270" stroke-width="2"/>
    </g>
    <g>
      <path d="M425.044,548.5 L475.044,548.5 L475.044,598.5 L425.044,598.5 z" fill="#EBEDED"/>
      <path d="M425.044,548.5 L475.044,548.5 L475.044,598.5 L425.044,598.5 z" fill-opacity="0" stroke="#294270" stroke-width="2"/>
    </g>
    <g>
      <path d="M350.044,538.5 C341.759,538.5 335.044,531.784 335.044,523.5 C335.044,515.216 341.759,508.5 350.044,508.5 C358.328,508.5 365.044,515.216 365.044,523.5 C365.044,531.784 358.328,538.5 350.044,538.5 z" fill="#C5C6C6"/>
      <path d="M350.044,538.5 C341.759,538.5 335.044,531.784 335.044,523.5 C335.044,515.216 341.759,508.5 350.044,508.5 C358.328,508.5 365.044,515.216 365.044,523.5 C365.044,531.784 358.328,538.5 350.044,538.5 z" fill-opacity="0" stroke="#737370" stroke-width="4"/>
    </g>
    <g>
      <path d="M350.044,438.5 C341.759,438.5 335.044,431.784 335.044,423.5 C335.044,415.216 341.759,408.5 350.044,408.5 C358.328,408.5 365.044,415.216 365.044,423.5 C365.044,431.784 358.328,438.5 350.044,438.5 z" fill="#8FC7ED"/>
      <path d="M350.044,438.5 C341.759,438.5 335.044,431.784 335.044,423.5 C335.044,415.216 341.759,408.5 350.044,408.5 C358.328,408.5 365.044,415.216 365.044,423.5 C365.044,431.784 358.328,438.5 350.044,438.5 z" fill-opacity="0" stroke="#006CA9" stroke-width="4"/>
    </g>
    <g>
      <path d="M350.044,588.5 C341.759,588.5 335.044,581.784 335.044,573.5 C335.044,565.216 341.759,558.5 350.044,558.5 C358.328,558.5 365.044,565.216 365.044,573.5 C365.044,581.784 358.328,588.5 350.044,588.5 z" fill="#FABA00"/>
      <path d="M350.044,588.5 C341.759,588.5 335.044,581.784 335.044,573.5 C335.044,565.216 341.759,558.5 350.044,558.5 C358.328,558.5 365.044,565.216 365.044,573.5 C365.044,581.784 358.328,588.5 350.044,588.5 z" fill-opacity="0" stroke="#F0801A" stroke-width="4"/>
    </g>
    <g>
      <path d="M350.044,424.526 L350.044,562.121" fill-opacity="0" stroke="#F0801A" stroke-width="3"/>
      <path d="M345.844,562.121 L350.044,573.321 L354.244,562.121 M350.044,562.121 L350.044,573.321" fill-opacity="0" stroke="#F0801A" stroke-width="3" stroke-opacity="1"/>
    </g>
    <g>
      <path d="M350.044,524.642 L350.044,438.126" fill-opacity="0" stroke="#294270" stroke-width="3"/>
      <path d="M354.244,438.126 L350.044,426.926 L345.844,438.126 M350.044,438.126 L350.044,426.926" fill-opacity="0" stroke="#294270" stroke-width="3" stroke-opacity="1"/>
    </g>
    <g>
      <path d="M300.044,638.5 C291.759,638.5 285.044,631.784 285.044,623.5 C285.044,615.216 291.759,608.5 300.044,608.5 C308.328,608.5 315.044,615.216 315.044,623.5 C315.044,631.784 308.328,638.5 300.044,638.5 z" fill="#C5C6C6"/>
      <path d="M300.044,638.5 C291.759,638.5 285.044,631.784 285.044,623.5 C285.044,615.216 291.759,608.5 300.044,608.5 C308.328,608.5 315.044,615.216 315.044,623.5 C315.044,631.784 308.328,638.5 300.044,638.5 z" fill-opacity="0" stroke="#737370" stroke-width="4"/>
    </g>
    <g>
      <path d="M350.044,575.721 L309.615,614.892" fill-opacity="0" stroke="#737370" stroke-width="3"/>
      <path d="M306.692,611.875 L301.571,622.685 L312.537,617.908 M309.615,614.892 L301.571,622.685" fill-opacity="0" stroke="#737370" stroke-width="3" stroke-opacity="1"/>
    </g>
    <g>
      <path d="M700.5,398.5 L750.5,398.5 L750.5,448.5 L700.5,448.5 z" fill="#EBEDED"/>
      <path d="M700.5,398.5 L750.5,398.5 L750.5,448.5 L700.5,448.5 z" fill-opacity="0" stroke="#294270" stroke-width="2"/>
    </g>
    <g>
      <path d="M750.5,398.5 L800.5,398.5 L800.5,448.5 L750.5,448.5 z" fill="#EBEDED"/>
      <path d="M750.5,398.5 L800.5,398.5 L800.5,448.5 L750.5,448.5 z" fill-opacity="0" stroke="#294270" stroke-width="2"/>
    </g>
    <g>
      <path d="M800.5,398.5 L850.5,398.5 L850.5,448.5 L800.5,448.5 z" fill="#EBEDED"/>
      <path d="M800.5,398.5 L850.5,398.5 L850.5,448.5 L800.5,448.5 z" fill-opacity="0" stroke="#294270" stroke-width="2"/>
    </g>
    <g>
      <path d="M850.5,398.5 L900.5,398.5 L900.5,448.5 L850.5,448.5 z" fill="#EBEDED"/>
      <path d="M850.5,398.5 L900.5,398.5 L900.5,448.5 L850.5,448.5 z" fill-opacity="0" stroke="#294270" stroke-width="2"/>
    </g>
    <g>
      <path d="M900.5,398.5 L950.5,398.5 L950.5,448.5 L900.5,448.5 z" fill="#EBEDED"/>
      <path d="M900.5,398.5 L950.5,398.5 L950.5,448.5 L900.5,448.5 z" fill-opacity="0" stroke="#294270" stroke-width="2"/>
    </g>
    <g>
      <path d="M700.5,448.5 L750.5,448.5 L750.5,498.5 L700.5,498.5 z" fill="#EBEDED"/>
      <path d="M700.5,448.5 L750.5,448.5 L750.5,498.5 L700.5,498.5 z" fill-opacity="0" stroke="#294270" stroke-width="2"/>
    </g>
    <g>
      <path d="M750.5,448.5 L800.5,448.5 L800.5,498.5 L750.5,498.5 z" fill="#EBEDED"/>
      <path d="M750.5,448.5 L800.5,448.5 L800.5,498.5 L750.5,498.5 z" fill-opacity="0" stroke="#294270" stroke-width="2"/>
    </g>
    <g>
      <path d="M800.5,448.5 L850.5,448.5 L850.5,498.5 L800.5,498.5 z" fill="#EBEDED"/>
      <path d="M800.5,448.5 L850.5,448.5 L850.5,498.5 L800.5,498.5 z" fill-opacity="0" stroke="#294270" stroke-width="2"/>
    </g>
    <g>
      <path d="M850.5,448.5 L900.5,448.5 L900.5,498.5 L850.5,498.5 z" fill="#EBEDED"/>
      <path d="M850.5,448.5 L900.5,448.5 L900.5,498.5 L850.5,498.5 z" fill-opacity="0" stroke="#294270" stroke-width="2"/>
    </g>
    <g>
      <path d="M900.5,448.5 L950.5,448.5 L950.5,498.5 L900.5,498.5 z" fill="#EBEDED"/>
      <path d="M900.5,448.5 L950.5,448.5 L950.5,498.5 L900.5,498.5 z" fill-opacity="0" stroke="#294270" stroke-width="2"/>
    </g>
    <g>
      <path d="M700.5,598.5 L750.5,598.5 L750.5,648.5 L700.5,648.5 z" fill="#EBEDED"/>
      <path d="M700.5,598.5 L750.5,598.5 L750.5,648.5 L700.5,648.5 z" fill-opacity="0" stroke="#294270" stroke-width="2"/>
    </g>
    <g>
      <path d="M750.5,598.5 L800.5,598.5 L800.5,648.5 L750.5,648.5 z" fill="#EBEDED"/>
      <path d="M750.5,598.5 L800.5,598.5 L800.5,648.5 L750.5,648.5 z" fill-opacity="0" stroke="#294270" stroke-width="2"/>
    </g>
    <g>
      <path d="M800.5,598.5 L850.5,598.5 L850.5,648.5 L800.5,648.5 z" fill="#EBEDED"/>
      <path d="M800.5,598.5 L850.5,598.5 L850.5,648.5 L800.5,648.5 z" fill-opacity="0" stroke="#294270" stroke-width="2"/>
    </g>
    <g>
      <path d="M850.5,598.5 L900.5,598.5 L900.5,648.5 L850.5,648.5 z" fill="#EBEDED"/>
      <path d="M850.5,598.5 L900.5,598.5 L900.5,648.5 L850.5,648.5 z" fill-opacity="0" stroke="#294270" stroke-width="2"/>
    </g>
    <g>
      <path d="M900.5,598.5 L950.5,598.5 L950.5,648.5 L900.5,648.5 z" fill="#EBEDED"/>
      <path d="M900.5,598.5 L950.5,598.5 L950.5,648.5 L900.5,648.5 z" fill-opacity="0" stroke="#294270" stroke-width="2"/>
    </g>
    <g>
      <path d="M700.5,498.5 L750.5,498.5 L750.5,548.5 L700.5,548.5 z" fill="#EBEDED"/>
      <path d="M700.5,498.5 L750.5,498.5 L750.5,548.5 L700.5,548.5 z" fill-opacity="0" stroke="#294270" stroke-width="2"/>
    </g>
    <g>
      <path d="M750.5,498.5 L800.5,498.5 L800.5,548.5 L750.5,548.5 z" fill="#EBEDED"/>
      <path d="M750.5,498.5 L800.5,498.5 L800.5,548.5 L750.5,548.5 z" fill-opacity="0" stroke="#294270" stroke-width="2"/>
    </g>
    <g>
      <path d="M800.5,498.5 L850.5,498.5 L850.5,548.5 L800.5,548.5 z" fill="#EBEDED"/>
      <path d="M800.5,498.5 L850.5,498.5 L850.5,548.5 L800.5,548.5 z" fill-opacity="0" stroke="#294270" stroke-width="2"/>
    </g>
    <g>
      <path d="M850.5,498.5 L900.5,498.5 L900.5,548.5 L850.5,548.5 z" fill="#EBEDED"/>
      <path d="M850.5,498.5 L900.5,498.5 L900.5,548.5 L850.5,548.5 z" fill-opacity="0" stroke="#294270" stroke-width="2"/>
    </g>
    <g>
      <path d="M900.5,498.5 L950.5,498.5 L950.5,548.5 L900.5,548.5 z" fill="#EBEDED"/>
      <path d="M900.5,498.5 L950.5,498.5 L950.5,548.5 L900.5,548.5 z" fill-opacity="0" stroke="#294270" stroke-width="2"/>
    </g>
    <g>
      <path d="M700.5,548.5 L750.5,548.5 L750.5,598.5 L700.5,598.5 z" fill="#EBEDED"/>
      <path d="M700.5,548.5 L750.5,548.5 L750.5,598.5 L700.5,598.5 z" fill-opacity="0" stroke="#294270" stroke-width="2"/>
    </g>
    <g>
      <path d="M750.5,548.5 L800.5,548.5 L800.5,598.5 L750.5,598.5 z" fill="#EBEDED"/>
      <path d="M750.5,548.5 L800.5,548.5 L800.5,598.5 L750.5,598.5 z" fill-opacity="0" stroke="#294270" stroke-width="2"/>
    </g>
    <g>
      <path d="M800.5,548.5 L850.5,548.5 L850.5,598.5 L800.5,598.5 z" fill="#EBEDED"/>
      <path d="M800.5,548.5 L850.5,548.5 L850.5,598.5 L800.5,598.5 z" fill-opacity="0" stroke="#294270" stroke-width="2"/>
    </g>
    <g>
      <path d="M850.5,548.5 L900.5,548.5 L900.5,598.5 L850.5,598.5 z" fill="#EBEDED"/>
      <path d="M850.5,548.5 L900.5,548.5 L900.5,598.5 L850.5,598.5 z" fill-opacity="0" stroke="#294270" stroke-width="2"/>
    </g>
    <g>
      <path d="M900.5,548.5 L950.5,548.5 L950.5,598.5 L900.5,598.5 z" fill="#EBEDED"/>
      <path d="M900.5,548.5 L950.5,548.5 L950.5,598.5 L900.5,598.5 z" fill-opacity="0" stroke="#294270" stroke-width="2"/>
    </g>
    <g>
      <path d="M825.5,538.5 C817.216,538.5 810.5,531.784 810.5,523.5 C810.5,515.216 817.216,508.5 825.5,508.5 C833.784,508.5 840.5,515.216 840.5,523.5 C840.5,531.784 833.784,538.5 825.5,538.5 z" fill="#C5C6C6"/>
      <path d="M825.5,538.5 C817.216,538.5 810.5,531.784 810.5,523.5 C810.5,515.216 817.216,508.5 825.5,508.5 C833.784,508.5 840.5,515.216 840.5,523.5 C840.5,531.784 833.784,538.5 825.5,538.5 z" fill-opacity="0" stroke="#737370" stroke-width="4"/>
    </g>
    <g>
      <path d="M825.5,438.5 C817.216,438.5 810.5,431.784 810.5,423.5 C810.5,415.216 817.216,408.5 825.5,408.5 C833.784,408.5 840.5,415.216 840.5,423.5 C840.5,431.784 833.784,438.5 825.5,438.5 z" fill="#8FC7ED"/>
      <path d="M825.5,438.5 C817.216,438.5 810.5,431.784 810.5,423.5 C810.5,415.216 817.216,408.5 825.5,408.5 C833.784,408.5 840.5,415.216 840.5,423.5 C840.5,431.784 833.784,438.5 825.5,438.5 z" fill-opacity="0" stroke="#006CA9" stroke-width="4"/>
    </g>
    <g>
      <path d="M825.5,588.5 C817.216,588.5 810.5,581.784 810.5,573.5 C810.5,565.216 817.216,558.5 825.5,558.5 C833.784,558.5 840.5,565.216 840.5,573.5 C840.5,581.784 833.784,588.5 825.5,588.5 z" fill="#FABA00"/>
      <path d="M825.5,588.5 C817.216,588.5 810.5,581.784 810.5,573.5 C810.5,565.216 817.216,558.5 825.5,558.5 C833.784,558.5 840.5,565.216 840.5,573.5 C840.5,581.784 833.784,588.5 825.5,588.5 z" fill-opacity="0" stroke="#F0801A" stroke-width="4"/>
    </g>
    <g>
      <path d="M825.5,424.526 L825.5,562.121" fill-opacity="0" stroke="#F0801A" stroke-width="3"/>
      <path d="M821.3,562.121 L825.5,573.321 L829.7,562.121 M825.5,562.121 L825.5,573.321" fill-opacity="0" stroke="#F0801A" stroke-width="3" stroke-opacity="1"/>
    </g>
    <g>
      <path d="M825.5,524.642 L825.5,438.126" fill-opacity="0" stroke="#294270" stroke-width="3"/>
      <path d="M829.7,438.126 L825.5,426.926 L821.3,438.126 M825.5,438.126 L825.5,426.926" fill-opacity="0" stroke="#294270" stroke-width="3" stroke-opacity="1"/>
    </g>
    <g>
      <path d="M775.5,638.5 C767.216,638.5 760.5,631.784 760.5,623.5 C760.5,615.216 767.216,608.5 775.5,608.5 C783.784,608.5 790.5,615.216 790.5,623.5 C790.5,631.784 783.784,638.5 775.5,638.5 z" fill="#C5C6C6"/>
      <path d="M775.5,638.5 C767.216,638.5 760.5,631.784 760.5,623.5 C760.5,615.216 767.216,608.5 775.5,608.5 C783.784,608.5 790.5,615.216 790.5,623.5 C790.5,631.784 783.784,638.5 775.5,638.5 z" fill-opacity="0" stroke="#737370" stroke-width="4"/>
    </g>
    <g>
      <path d="M825.5,575.721 L785.071,614.892" fill-opacity="0" stroke="#737370" stroke-width="3"/>
      <path d="M782.148,611.875 L777.027,622.685 L787.993,617.908 M785.071,614.892 L777.027,622.685" fill-opacity="0" stroke="#737370" stroke-width="3" stroke-opacity="1"/>
    </g>
    <g>
      <path d="M775.5,588.5 C767.216,588.5 760.5,581.784 760.5,573.5 C760.5,565.216 767.216,558.5 775.5,558.5 C783.784,558.5 790.5,565.216 790.5,573.5 C790.5,581.784 783.784,588.5 775.5,588.5 z" fill="#F0801A"/>
      <path d="M775.5,588.5 C767.216,588.5 760.5,581.784 760.5,573.5 C760.5,565.216 767.216,558.5 775.5,558.5 C783.784,558.5 790.5,565.216 790.5,573.5 C790.5,581.784 783.784,588.5 775.5,588.5 z" fill-opacity="0" stroke="#F0801A" stroke-width="4"/>
    </g>
    <g>
      <path d="M775.304,624.355 L775.304,589.321" fill-opacity="0" stroke="#F0801A" stroke-width="3"/>
      <path d="M779.504,589.321 L775.304,578.121 L771.104,589.321 M775.304,589.321 L775.304,578.121" fill-opacity="0" stroke="#F0801A" stroke-width="3" stroke-opacity="1"/>
    </g>
    <text transform="matrix(1, 0, 0, 1, 350.12, 726.5)">
      <tspan x="-124.424" y="-34.5" font-family="Verdana-Bold" font-size="24" fill="#294270">checkio([[2,2,0],</tspan>
      <tspan x="-124.424" y="-5.5" font-family="Verdana-Bold" font-size="24" fill="#294270">				 [0,2,-1],</tspan>
      <tspan x="-124.424" y="23.5" font-family="Verdana-Bold" font-size="24" fill="#294270">				 [3,2,1],</tspan>
      <tspan x="-124.424" y="52.5" font-family="Verdana-Bold" font-size="24" fill="#294270">               [4,1,0]])</tspan>
    </text>
    <text transform="matrix(1, 0, 0, 1, 384.27, 185)">
      <tspan x="-69.727" y="9" font-family="Verdana-Bold" font-size="24" fill="#294270">out: [0, 2]</tspan>
    </text>
    <text transform="matrix(1, 0, 0, 1, 814.727, 185)">
      <tspan x="-69.727" y="9" font-family="Verdana-Bold" font-size="24" fill="#294270">out: [3, 2]</tspan>
    </text>
    <text transform="matrix(1, 0, 0, 1, 119.727, 533)">
      <tspan x="-69.727" y="9" font-family="Verdana-Bold" font-size="24" fill="#294270">out: [4, 1]</tspan>
    </text>
    <text transform="matrix(1, 0, 0, 1, 594.727, 533)">
      <tspan x="-69.727" y="9" font-family="Verdana-Bold" font-size="24" fill="#294270">out: [3, 1]</tspan>
    </text>
    <text transform="matrix(1, 0, 0, 1, 837.7, 705)">
      <tspan x="-87.7" y="23" font-family="Verdana-Bold" font-size="60" fill="#294270">WIN!</tspan>
    </text>
  </g>
  <defs/>
</svg>
